HIERARCHY
ROOT joint_Root
{
	OFFSET 0.0 0.0 0.0
	CHANNELS 6 Xposition Yposition Zposition Zrotation Xrotation Yrotation 
	JOINT Hips
	{
		OFFSET -17.1583 93.1646 452.98
		CHANNELS 6 Xposition Yposition Zposition Zrotation Xrotation Yrotation 
		JOINT Spine
		{
			OFFSET 15.7357 0.0 0.0
			CHANNELS 6 Xposition Yposition Zposition Zrotation Xrotation Yrotation 
			JOINT Chest
			{
				OFFSET 8.98455 -0.406207 0.0
				CHANNELS 6 Xposition Yposition Zposition Zrotation Xrotation Yrotation 
				JOINT Neck
				{
					OFFSET 16.3773 0.0 0.0
					CHANNELS 6 Xposition Yposition Zposition Zrotation Xrotation Yrotation 
					JOINT Head
					{
						OFFSET 6.45672 0.0 0.0
						CHANNELS 6 Xposition Yposition Zposition Zrotation Xrotation Yrotation 
						End Site
						{
							OFFSET 0.0 0.0 0.0
						}
					}
				}
				JOINT Shoulder_L
				{
					OFFSET 12.9942 -0.242716 4.98039
					CHANNELS 6 Xposition Yposition Zposition Zrotation Xrotation Yrotation 
					JOINT UpperArm_L
					{
						OFFSET 5.34809 0.0 0.0
						CHANNELS 6 Xposition Yposition Zposition Zrotation Xrotation Yrotation 
						JOINT LowerArm_L
						{
							OFFSET 24.3286 1.87007e-05 0.0
							CHANNELS 6 Xposition Yposition Zposition Zrotation Xrotation Yrotation 
							JOINT Hand_L
							{
								OFFSET 22.2916 0.0 0.0
								CHANNELS 6 Xposition Yposition Zposition Zrotation Xrotation Yrotation 
								End Site
								{
									OFFSET 0.0 0.0 0.0
								}
							}
						}
					}
				}
				JOINT Shoulder_R
				{
					OFFSET 12.9945 -0.242716 -4.98039
					CHANNELS 6 Xposition Yposition Zposition Zrotation Xrotation Yrotation 
					JOINT UpperArm_R
					{
						OFFSET -5.34813 0.0 0.0
						CHANNELS 6 Xposition Yposition Zposition Zrotation Xrotation Yrotation 
						JOINT LowerArm_R
						{
							OFFSET -24.3289 0.000322201 0.0
							CHANNELS 6 Xposition Yposition Zposition Zrotation Xrotation Yrotation 
							JOINT Hand_R
							{
								OFFSET -22.2915 -0.000108084 0.0
								CHANNELS 6 Xposition Yposition Zposition Zrotation Xrotation Yrotation 
								End Site
								{
									OFFSET 0.0 0.0 0.0
								}
							}
						}
					}
				}
			}
		}
		JOINT UpperLeg_L
		{
			OFFSET -2.19248 -6.46944 0.0
			CHANNELS 6 Xposition Yposition Zposition Zrotation Xrotation Yrotation 
			JOINT LowerLeg_L
			{
				OFFSET 39.0811 0.0 -1.23785e-05
				CHANNELS 6 Xposition Yposition Zposition Zrotation Xrotation Yrotation 
				JOINT Foot_L
				{
					OFFSET 40.9854 0.0 -1.26872e-05
					CHANNELS 6 Xposition Yposition Zposition Zrotation Xrotation Yrotation 
					JOINT Toes_L
					{
						OFFSET 11.7543 0.0 0.0
						CHANNELS 6 Xposition Yposition Zposition Zrotation Xrotation Yrotation 
						End Site
						{
							OFFSET 0.0 0.0 0.0
						}
					}
				}
			}
		}
		JOINT UpperLeg_R
		{
			OFFSET -2.19251 6.46944 0.0
			CHANNELS 6 Xposition Yposition Zposition Zrotation Xrotation Yrotation 
			JOINT LowerLeg_R
			{
				OFFSET -39.0811 -0.00228153 -0.0401928
				CHANNELS 6 Xposition Yposition Zposition Zrotation Xrotation Yrotation 
				JOINT Foot_R
				{
					OFFSET -40.9854 0.0 0.0
					CHANNELS 6 Xposition Yposition Zposition Zrotation Xrotation Yrotation 
					JOINT Toes_R
					{
						OFFSET -11.7543 0.0 0.0
						CHANNELS 6 Xposition Yposition Zposition Zrotation Xrotation Yrotation 
						End Site
						{
							OFFSET 0.0 0.0 0.0
						}
					}
				}
			}
		}
	}
}
MOTION
Frames:	5
Frame Time:	0.0333333
0.000000 0.000000 0.000000 0.000000 0.000000 -0.000000 -0.008198 93.202500 0.322483 86.704000 -3.251240 -2.280710 15.735700 0.000005 -0.000001 80.954800 88.563700 -78.962800 8.984550 -0.406207 -0.000000 -4.914580 -0.671429 3.958450 16.377300 -0.000001 -0.000001 2.560350 2.707170 -1.789970 6.456720 -0.000001 -0.000000 6.628880 2.841780 -0.463138 12.994200 -0.242716 4.980390 -92.336800 7.197300 -71.959000 5.348090 -0.000007 -0.000001 -76.130600 19.476300 4.424030 24.328600 0.000019 0.000005 12.946100 23.504900 -29.958300 22.291600 -0.000001 0.000005 -4.604620 4.994650 7.433100 12.994500 -0.242716 -4.980390 88.444400 4.916780 -72.419500 -5.348130 -0.000001 -0.000004 -70.512000 20.830500 0.193383 -24.328900 0.000322 -0.000009 5.029590 9.808860 -27.325600 -22.291500 -0.000108 -0.000004 -2.508030 5.177410 3.279560 -2.192480 -6.469440 -0.000000 -177.071000 -3.747110 -3.319890 39.081100 -0.000007 -0.000012 0.158462 -0.538333 16.402400 40.985400 -0.000006 -0.000013 2.940260 7.842720 -71.166200 11.754300 -0.000000 0.000003 -0.000047 0.168405 -9.746360 -2.192510 6.469440 -0.000001 -175.954000 4.670240 -179.662000 -39.081100 -0.002282 -0.040193 0.000383 0.018048 9.304600 -40.985400 0.000008 0.000006 -4.509950 5.683920 -65.985300 -11.754300 -0.000006 -0.000006 -0.010133 0.272297 -5.510430
0.000000 0.000000 0.000000 0.000000 0.000000 -0.000000 -0.043701 93.217700 0.267517 86.744200 -3.162500 -2.334080 15.735700 0.000005 -0.000001 80.172500 88.529600 -78.181700 8.984550 -0.406207 -0.000000 -4.852850 -0.720545 3.954270 16.377300 -0.000001 -0.000001 2.368760 2.580770 -1.610290 6.456720 -0.000001 -0.000000 6.312800 2.771130 -0.057577 12.994200 -0.242716 4.980390 -92.360200 7.257300 -71.930200 5.348090 -0.000007 -0.000001 -75.651600 18.421900 4.093230 24.328600 0.000019 0.000005 13.354800 23.479500 -30.788500 22.291600 -0.000001 0.000005 -4.659200 4.993360 7.460370 12.994500 -0.242716 -4.980390 88.434200 4.933520 -72.366600 -5.348130 -0.000001 -0.000004 -70.006300 18.822500 0.389686 -24.328900 0.000322 -0.000009 5.405780 9.587980 -29.607400 -22.291500 -0.000108 -0.000004 -2.204470 5.170320 3.452820 -2.192480 -6.469440 -0.000000 -177.089000 -3.654980 -3.368030 39.081100 -0.000007 -0.000012 0.156274 -0.535044 16.282200 40.985400 -0.000006 -0.000013 2.912140 7.869710 -71.033700 11.754300 -0.000000 0.000003 0.000069 0.166453 -9.825640 -2.192510 6.469440 -0.000001 -175.964000 4.779840 -179.722000 -39.081100 -0.002282 -0.040193 0.000590 0.016913 9.236080 -40.985400 0.000008 0.000006 -4.604940 5.675550 -65.896800 -11.754300 -0.000006 -0.000006 -0.010062 0.271766 -5.532130
0.000000 0.000000 0.000000 0.000000 0.000000 -0.000000 -0.075213 93.241200 0.183011 86.776700 -3.095740 -2.436440 15.735700 0.000005 -0.000001 79.906000 88.504100 -77.911400 8.984550 -0.406207 -0.000000 -4.804740 -0.742502 3.961030 16.377300 -0.000001 -0.000001 2.124680 2.454080 -1.435430 6.456720 -0.000001 -0.000000 5.963490 2.682880 0.404075 12.994200 -0.242716 4.980390 -92.364500 7.261290 -71.908300 5.348090 -0.000007 -0.000001 -75.189100 17.091900 3.825640 24.328600 0.000019 0.000005 14.919000 24.565400 -32.653800 22.291600 -0.000001 0.000005 -4.490250 5.001330 7.291150 12.994500 -0.242716 -4.980390 88.425900 4.952200 -72.342400 -5.348130 -0.000001 -0.000004 -69.546300 16.059500 0.711579 -24.328900 0.000322 -0.000009 6.073820 9.588880 -32.573200 -22.291500 -0.000108 -0.000004 -2.272040 5.160450 3.692690 -2.192480 -6.469440 -0.000000 -177.098000 -3.657400 -3.470080 39.081100 -0.000007 -0.000012 0.153668 -0.530782 16.146700 40.985400 -0.000006 -0.000013 2.847580 7.936910 -70.927900 11.754300 -0.000000 0.000003 0.000153 0.165011 -9.884210 -2.192510 6.469440 -0.000001 -175.946000 4.721940 -179.847000 -39.081100 -0.002282 -0.040193 0.000866 0.015334 9.165130 -40.985400 0.000008 0.000006 -4.477890 5.582410 -65.859100 -11.754300 -0.000006 -0.000006 -0.010251 0.273173 -5.474570
0.000000 0.000000 0.000000 0.000000 0.000000 -0.000000 -0.114178 93.262000 0.107001 86.772200 -3.041140 -2.494000 15.735700 0.000005 -0.000001 79.936600 88.451600 -77.900100 8.984550 -0.406207 -0.000000 -4.700340 -0.762011 4.044540 16.377300 -0.000001 -0.000001 1.821940 2.326760 -1.256990 6.456720 -0.000001 -0.000000 5.573190 2.613150 0.770670 12.994200 -0.242716 4.980390 -92.358400 7.251520 -71.929800 5.348090 -0.000007 -0.000001 -74.763700 15.497900 3.804940 24.328600 0.000019 0.000005 18.188100 26.562500 -36.303200 22.291600 -0.000001 0.000005 -4.203550 5.011310 7.078070 12.994500 -0.242716 -4.980390 88.445800 4.886420 -72.331600 -5.348130 -0.000001 -0.000004 -69.228500 12.573300 1.266080 -24.328900 0.000322 -0.000009 7.330980 9.906850 -36.788700 -22.291500 -0.000108 -0.000004 -2.186870 5.120720 4.633940 -2.192480 -6.469440 -0.000000 -177.045000 -3.645110 -3.572680 39.081100 -0.000007 -0.000012 0.149518 -0.518461 16.087200 40.985400 -0.000006 -0.000013 2.708760 8.009540 -70.753700 11.754300 -0.000000 0.000003 0.000125 0.165497 -9.864450 -2.192510 6.469440 -0.000001 -175.897000 4.735430 -179.948000 -39.081100 -0.002282 -0.040193 0.001079 0.014085 9.119180 -40.985400 0.000008 0.000006 -4.549960 5.527300 -65.706900 -11.754300 -0.000006 -0.000006 -0.010116 0.272167 -5.515720
0.000000 0.000000 0.000000 0.000000 0.000000 -0.000000 -0.135758 93.286700 -0.001073 86.843900 -2.901000 -2.566070 15.735700 0.000005 -0.000001 78.983600 88.375600 -76.907700 8.984550 -0.406207 -0.000000 -4.558710 -0.843392 4.121110 16.377300 -0.000001 -0.000001 1.479790 2.229470 -1.101090 6.456720 -0.000001 -0.000000 4.888390 2.581260 1.123480 12.994200 -0.242716 4.980390 -92.350800 7.222650 -71.916900 5.348090 -0.000007 -0.000001 -74.540800 12.467600 4.191020 24.328600 0.000019 0.000005 21.848100 27.146300 -41.306300 22.291600 -0.000001 0.000005 -3.671970 5.024530 6.792800 12.994500 -0.242716 -4.980390 88.444900 4.858500 -72.227500 -5.348130 -0.000001 -0.000004 -68.882800 8.601770 1.977720 -24.328900 0.000322 -0.000009 9.716680 10.731500 -42.596500 -22.291500 -0.000108 -0.000004 -2.423510 5.071830 5.753610 -2.192480 -6.469440 -0.000000 -177.079000 -3.569800 -3.695250 39.081100 -0.000007 -0.000012 0.143790 -0.501980 15.984400 40.985400 -0.000006 -0.000013 2.525540 8.108210 -70.603800 11.754300 -0.000000 0.000003 0.000031 0.167108 -9.799010 -2.192510 6.469440 -0.000001 -175.935000 4.808550 179.965000 -39.081100 -0.002282 -0.040193 0.001352 0.012553 9.001880 -40.985400 0.000008 0.000006 -4.539140 5.500890 -65.646900 -11.754300 -0.000006 -0.000006 -0.010228 0.273002 -5.481570
